<?xml version="1.0" standalone="no"?>
<!DOCTYPE svg PUBLIC "-//W3C//DTD SVG 1.1//EN" "http://www.w3.org/Graphics/SVG/1.1/DTD/svg11.dtd">
<svg xmlns="http://www.w3.org/2000/svg" version="1.1">
<g transform="translate(50, 314.400000) scale(7)" font-family="monospace">
<text transform="scale(1 3.240000) translate(0 1.620000)">(</text><g transform="translate(6.000000 0.000000) scale(1.000000)">
<g transform="translate(0.700000 -4.000000) scale(0.800000)">
<text>A</text>
<g transform="translate(7.000000 0.000000) scale(1.000000)">
<g transform="translate(0.000000 -6.000000) scale(0.750000)">
<text>B</text>
</g>
</g>
<g transform="translate(12.250000 0.000000) scale(1.000000)">
<text>C</text>
<g transform="translate(7.000000 0.000000) scale(1.000000)">
<g transform="translate(0.000000 -6.000000) scale(0.750000)">
<text>D</text>
</g>
</g>
</g>
</g>
<line stroke-width="0.3" stroke="black" x1="0" x2="21.000000" y1="-3" y2="-3" />
<g transform="translate(0.000000 7.900000) scale(0.800000)">
<text>E</text>
<g transform="translate(7.000000 0.000000) scale(1.000000)">
<g transform="translate(0.000000 -6.000000) scale(0.750000)">
<text>F</text>
</g>
<g transform="translate(0.000000 5.000000) scale(0.750000)">
<text>G</text>
</g>
</g>
<g transform="translate(12.250000 0.000000) scale(1.000000)">
<text>+</text>
</g>
<g transform="translate(19.250000 0.000000) scale(1.000000)">
<text>H</text>
</g>
</g>
</g>
<text transform="scale(1 3.240000) translate(26.000000 1.620000)">)</text><g transform="translate(32.000000 0.000000) scale(1.000000)">
<text>-</text>
</g>
<g transform="translate(39.000000 0.000000) scale(1.000000)">
<text>I</text>
</g>
</g>
</svg>
