<?xml version="1.0" standalone="no"?>
<!DOCTYPE svg PUBLIC "-//W3C//DTD SVG 1.1//EN" "http://www.w3.org/Graphics/SVG/1.1/DTD/svg11.dtd">
<svg xmlns="http://www.w3.org/2000/svg" version="1.1">
<g transform="translate(50, 346.455125) scale(7)" font-family="monospace">
<g transform="translate(0.000000 -12.560000) scale(0.800000)">
<text>A</text>
<g transform="translate(7.000000 0.000000) scale(1.000000)">
<text>+</text>
<g transform="translate(7.000000 0.000000) scale(1.000000)">
<text transform="scale(1 1.200000) translate(0 0.600000)">(</text><g transform="translate(6.000000 0.000000) scale(1.000000)">
<text>B</text>
</g>
<text transform="scale(1 1.200000) translate(12.000000 0.600000)">)</text><g transform="translate(18.000000 0.000000) scale(1.000000)">
<g transform="translate(0.000000 -19.403125) scale(0.800000)">
<text>G</text>
<g transform="translate(7.000000 0.000000) scale(1.000000)">
<g transform="translate(0.000000 -6.000000) scale(0.750000)">
<text transform="scale(1 3.410000) translate(0 1.705000)">(</text><g transform="translate(6.000000 0.000000) scale(1.000000)">
<g transform="translate(2.300000 -8.000000) scale(0.800000)">
<text>F</text>
<g transform="translate(7.000000 0.000000) scale(1.000000)">
<g transform="translate(0.000000 -6.000000) scale(0.750000)">
<text>e</text>
</g>
<g transform="translate(0.000000 5.000000) scale(0.750000)">
<text>E</text>
</g>
</g>
</g>
<line stroke-width="0.3" stroke="black" x1="0" x2="14.400000" y1="-3" y2="-3" />
<g transform="translate(0.000000 5.900000) scale(0.800000)">
<text transform="scale(1 1.200000) translate(0 0.600000)">(</text><g transform="translate(6.000000 0.000000) scale(1.000000)">
<text>2</text>
</g>
<text transform="scale(1 1.200000) translate(12.000000 0.600000)">)</text></g>
</g>
<text transform="scale(1 3.410000) translate(19.400000 1.705000)">)</text></g>
</g>
<g transform="translate(26.050000 0.000000) scale(1.000000)">
<text>-</text>
<g transform="translate(7.000000 0.000000) scale(1.000000)">
<text transform="scale(1 2.725391) translate(0 1.362695)">(</text><g transform="translate(6.000000 0.000000) scale(1.000000)">
<text>Q</text>
<g transform="translate(7.000000 0.000000) scale(1.000000)">
<g transform="translate(0.000000 5.000000) scale(0.750000)">
<text>E</text>
<g transform="translate(7.000000 0.000000) scale(1.000000)">
<g transform="translate(0.000000 5.000000) scale(0.750000)">
<text>5</text>
<g transform="translate(7.000000 0.000000) scale(1.000000)">
<text>+</text>
<g transform="translate(7.000000 0.000000) scale(1.000000)">
<text>E</text>
<g transform="translate(7.000000 0.000000) scale(1.000000)">
<g transform="translate(0.000000 5.000000) scale(0.750000)">
<text>E</text>
<g transform="translate(7.000000 0.000000) scale(1.000000)">
<g transform="translate(0.000000 5.000000) scale(0.750000)">
<text>E</text>
<g transform="translate(7.000000 0.000000) scale(1.000000)">
<g transform="translate(0.000000 5.000000) scale(0.750000)">
<text>D</text>
</g>
</g>
</g>
</g>
</g>
</g>
</g>
</g>
</g>
</g>
</g>
</g>
<g transform="translate(30.891602 0.000000) scale(1.000000)">
<text>-</text>
<g transform="translate(7.000000 0.000000) scale(1.000000)">
<text>Y</text>
</g>
</g>
</g>
<text transform="scale(1 2.725391) translate(49.891602 1.362695)">)</text><g transform="translate(55.891602 0.000000) scale(1.000000)">
<text>+</text>
<g transform="translate(7.000000 0.000000) scale(1.000000)">
<text>X</text>
<g transform="translate(7.000000 0.000000) scale(1.000000)">
<g transform="translate(0.000000 -6.000000) scale(0.750000)">
<text>K</text>
</g>
<g transform="translate(0.000000 5.000000) scale(0.750000)">
<text>J</text>
</g>
</g>
</g>
</g>
</g>
</g>
</g>
<line stroke-width="0.3" stroke="black" x1="0" x2="86.553281" y1="-3" y2="-3" />
<g transform="translate(40.476641 4.300000) scale(0.800000)">
<text>Y</text>
</g>
<g transform="translate(86.553281 0.000000) scale(1.000000)">
<text>-</text>
<g transform="translate(7.000000 0.000000) scale(1.000000)">
<g transform="translate(0.000000 -7.200000) scale(0.800000)">
<text transform="scale(1 1.200000) translate(0 0.600000)">(</text><g transform="translate(6.000000 0.000000) scale(1.000000)">
<text>8</text>
<g transform="translate(7.000000 0.000000) scale(1.000000)">
<text>0</text>
</g>
</g>
<text transform="scale(1 1.200000) translate(19.000000 0.600000)">)</text></g>
<line stroke-width="0.3" stroke="black" x1="0" x2="20.000000" y1="-3" y2="-3" />
<g transform="translate(2.800000 5.900000) scale(0.800000)">
<text transform="scale(1 1.200000) translate(0 0.600000)">(</text><g transform="translate(6.000000 0.000000) scale(1.000000)">
<text>2</text>
</g>
<text transform="scale(1 1.200000) translate(12.000000 0.600000)">)</text></g>
<g transform="translate(20.000000 0.000000) scale(1.000000)">
<text>-</text>
<g transform="translate(7.000000 0.000000) scale(1.000000)">
<g transform="translate(0.000000 -4.000000) scale(0.800000)">
<text>C</text>
<g transform="translate(7.000000 0.000000) scale(1.000000)">
<g transform="translate(0.000000 -6.000000) scale(0.750000)">
<text>G</text>
<g transform="translate(7.000000 0.000000) scale(1.000000)">
<g transform="translate(0.000000 -6.000000) scale(0.750000)">
<text>G</text>
<g transform="translate(7.000000 0.000000) scale(1.000000)">
<g transform="translate(0.000000 -6.000000) scale(0.750000)">
<text>G</text>
</g>
</g>
</g>
</g>
</g>
</g>
</g>
<line stroke-width="0.3" stroke="black" x1="0" x2="15.312500" y1="-3" y2="-3" />
<g transform="translate(4.856250 4.300000) scale(0.800000)">
<text>5</text>
</g>
</g>
</g>
</g>
</g>
</g>
</g>
</g>
</g>
<line stroke-width="0.3" stroke="black" x1="0" x2="134.292625" y1="-3" y2="-3" />
<g transform="translate(42.866313 8.140000) scale(0.800000)">
<text transform="scale(1 2.030000) translate(0 1.015000)">(</text><g transform="translate(6.000000 0.000000) scale(1.000000)">
<g transform="translate(0.000000 -4.000000) scale(0.800000)">
<text>8</text>
<g transform="translate(7.000000 0.000000) scale(1.000000)">
<text>+</text>
<g transform="translate(7.000000 0.000000) scale(1.000000)">
<text>4</text>
<g transform="translate(7.000000 0.000000) scale(1.000000)">
<text>+</text>
<g transform="translate(7.000000 0.000000) scale(1.000000)">
<text>7</text>
</g>
</g>
</g>
</g>
<g transform="translate(35.000000 0.000000) scale(1.000000)">
<text>+</text>
<g transform="translate(7.000000 0.000000) scale(1.000000)">
<text>5</text>
</g>
</g>
</g>
<line stroke-width="0.3" stroke="black" x1="0" x2="39.200000" y1="-3" y2="-3" />
<g transform="translate(14.000000 4.300000) scale(0.800000)">
<text>e</text>
<g transform="translate(7.000000 0.000000) scale(1.000000)">
<text>e</text>
</g>
</g>
</g>
<text transform="scale(1 2.030000) translate(44.200000 1.015000)">)</text><g transform="translate(50.200000 0.000000) scale(1.000000)">
<g transform="translate(0.000000 -6.000000) scale(0.750000)">
<text>-</text>
<g transform="translate(7.000000 0.000000) scale(1.000000)">
<text>i</text>
</g>
</g>
</g>
</g>
</g>
</svg>
