<?xml version="1.0" standalone="no"?>
<!DOCTYPE svg PUBLIC "-//W3C//DTD SVG 1.1//EN" "http://www.w3.org/Graphics/SVG/1.1/DTD/svg11.dtd">
<svg xmlns="http://www.w3.org/2000/svg" version="1.1">
<g transform="translate(50, 323.962500) scale(7)" font-family="monospace">
<g transform="translate(23.285938 -13.250000) scale(0.800000)">
<text>a</text>
<g transform="translate(7.000000 0.000000) scale(1.000000)">
<g transform="translate(0.000000 -6.000000) scale(0.750000)">
<text>b</text>
</g>
<g transform="translate(0.000000 5.000000) scale(0.750000)">
<text>c</text>
<g transform="translate(7.000000 0.000000) scale(1.000000)">
<g transform="translate(0.000000 5.000000) scale(0.750000)">
<text>i</text>
<g transform="translate(7.000000 0.000000) scale(1.000000)">
<g transform="translate(0.000000 5.000000) scale(0.750000)">
<text>j</text>
</g>
</g>
</g>
</g>
</g>
</g>
</g>
<line stroke-width="0.3" stroke="black" x1="0" x2="61.884375" y1="-3" y2="-3" />
<g transform="translate(0.000000 14.143750) scale(0.800000)">
<text>d</text>
<g transform="translate(7.000000 0.000000) scale(1.000000)">
<g transform="translate(0.000000 -6.000000) scale(0.750000)">
<text>e</text>
<g transform="translate(7.000000 0.000000) scale(1.000000)">
<g transform="translate(0.000000 -6.000000) scale(0.750000)">
<text>f</text>
<g transform="translate(7.000000 0.000000) scale(1.000000)">
<g transform="translate(0.000000 -6.000000) scale(0.750000)">
<text>k</text>
<g transform="translate(7.000000 0.000000) scale(1.000000)">
<g transform="translate(0.000000 -6.000000) scale(0.750000)">
<text>l</text>
</g>
</g>
</g>
</g>
</g>
<g transform="translate(0.000000 5.000000) scale(0.750000)">
<text>g</text>
</g>
</g>
</g>
</g>
<g transform="translate(21.355469 0.000000) scale(1.000000)">
<text>+</text>
<g transform="translate(7.000000 0.000000) scale(1.000000)">
<text>m</text>
<g transform="translate(7.000000 0.000000) scale(1.000000)">
<text>+</text>
<g transform="translate(7.000000 0.000000) scale(1.000000)">
<text>n</text>
<g transform="translate(7.000000 0.000000) scale(1.000000)">
<text>+</text>
<g transform="translate(7.000000 0.000000) scale(1.000000)">
<text>o</text>
<g transform="translate(7.000000 0.000000) scale(1.000000)">
<text>+</text>
<g transform="translate(7.000000 0.000000) scale(1.000000)">
<text>p</text>
</g>
</g>
</g>
</g>
</g>
</g>
</g>
</g>
</g>
<g transform="translate(61.884375 0.000000) scale(1.000000)">
<text>+</text>
<g transform="translate(7.000000 0.000000) scale(1.000000)">
<text>h</text>
</g>
</g>
</g>
</svg>
