<?xml version="1.0" standalone="no"?>
<!DOCTYPE svg PUBLIC "-//W3C//DTD SVG 1.1//EN" "http://www.w3.org/Graphics/SVG/1.1/DTD/svg11.dtd">
<svg xmlns="http://www.w3.org/2000/svg" version="1.1">
<g transform="translate(50, 318.406250) scale(7)" font-family="monospace">
<text transform="scale(1 2.240625) translate(0 1.120313)">(</text><g transform="translate(6.000000 0.000000) scale(1.000000)">
<text>a</text>
<g transform="translate(7.000000 0.000000) scale(1.000000)">
<g transform="translate(0.000000 -6.000000) scale(0.750000)">
<text>b</text>
<g transform="translate(7.000000 0.000000) scale(1.000000)">
<text>+</text>
<g transform="translate(7.000000 0.000000) scale(1.000000)">
<text>c</text>
<g transform="translate(7.000000 0.000000) scale(1.000000)">
<text>+</text>
<g transform="translate(7.000000 0.000000) scale(1.000000)">
<text>d</text>
<g transform="translate(7.000000 0.000000) scale(1.000000)">
<text>+</text>
<g transform="translate(7.000000 0.000000) scale(1.000000)">
<text>e</text>
<g transform="translate(7.000000 0.000000) scale(1.000000)">
<text>+</text>
<g transform="translate(7.000000 0.000000) scale(1.000000)">
<text>f</text>
<g transform="translate(7.000000 0.000000) scale(1.000000)">
<g transform="translate(0.000000 -6.000000) scale(0.750000)">
<text>g</text>
<g transform="translate(7.000000 0.000000) scale(1.000000)">
<text>+</text>
<g transform="translate(7.000000 0.000000) scale(1.000000)">
<text>h</text>
<g transform="translate(7.000000 0.000000) scale(1.000000)">
<text>+</text>
<g transform="translate(7.000000 0.000000) scale(1.000000)">
<text>i</text>
<g transform="translate(7.000000 0.000000) scale(1.000000)">
<text>+</text>
<g transform="translate(7.000000 0.000000) scale(1.000000)">
<text>j</text>
<g transform="translate(7.000000 0.000000) scale(1.000000)">
<text>+</text>
<g transform="translate(7.000000 0.000000) scale(1.000000)">
<text>k</text>
<g transform="translate(7.000000 0.000000) scale(1.000000)">
<g transform="translate(0.000000 -6.000000) scale(0.750000)">
<text>t</text>
<g transform="translate(7.000000 0.000000) scale(1.000000)">
<text>+</text>
<g transform="translate(7.000000 0.000000) scale(1.000000)">
<text>e</text>
<g transform="translate(7.000000 0.000000) scale(1.000000)">
<text>+</text>
<g transform="translate(7.000000 0.000000) scale(1.000000)">
<text>q</text>
</g>
</g>
</g>
</g>
</g>
</g>
</g>
</g>
</g>
</g>
</g>
</g>
</g>
</g>
</g>
</g>
</g>
</g>
</g>
</g>
</g>
</g>
</g>
</g>
</g>
</g>
</g>
<text transform="scale(1 2.240625) translate(109.453125 1.120313)">)</text></g>
</svg>
