<?xml version="1.0" standalone="no"?>
<!DOCTYPE svg PUBLIC "-//W3C//DTD SVG 1.1//EN" "http://www.w3.org/Graphics/SVG/1.1/DTD/svg11.dtd">
<svg xmlns="http://www.w3.org/2000/svg" version="1.1">
<g transform="translate(50, 323.239768) scale(7)" font-family="monospace">
<text>a</text>
<g transform="translate(7.000000 0.000000) scale(1.000000)">
<g transform="translate(0.000000 -6.000000) scale(0.750000)">
<text>b</text>
<g transform="translate(7.000000 0.000000) scale(1.000000)">
<g transform="translate(0.000000 -6.000000) scale(0.750000)">
<text>c</text>
<g transform="translate(7.000000 0.000000) scale(1.000000)">
<g transform="translate(0.000000 -6.000000) scale(0.750000)">
<text>d</text>
<g transform="translate(7.000000 0.000000) scale(1.000000)">
<g transform="translate(0.000000 -6.000000) scale(0.750000)">
<text>e</text>
<g transform="translate(7.000000 0.000000) scale(1.000000)">
<g transform="translate(0.000000 -6.000000) scale(0.750000)">
<text>f</text>
<g transform="translate(7.000000 0.000000) scale(1.000000)">
<g transform="translate(0.000000 -6.000000) scale(0.750000)">
<text>g</text>
<g transform="translate(7.000000 0.000000) scale(1.000000)">
<g transform="translate(0.000000 -6.000000) scale(0.750000)">
<text>h</text>
<g transform="translate(7.000000 0.000000) scale(1.000000)">
<g transform="translate(0.000000 -6.000000) scale(0.750000)">
<text>i</text>
<g transform="translate(7.000000 0.000000) scale(1.000000)">
<g transform="translate(0.000000 -6.000000) scale(0.750000)">
<text>j</text>
<g transform="translate(7.000000 0.000000) scale(1.000000)">
<g transform="translate(0.000000 -6.000000) scale(0.750000)">
<text>k</text>
<g transform="translate(7.000000 0.000000) scale(1.000000)">
<g transform="translate(0.000000 -6.000000) scale(0.750000)">
<text>l</text>
</g>
</g>
</g>
</g>
</g>
</g>
</g>
</g>
</g>
</g>
</g>
</g>
</g>
</g>
</g>
</g>
</g>
</g>
</g>
</g>
</g>
</g>
<g transform="translate(27.113062 0.000000) scale(1.000000)">
<text>+</text>
<g transform="translate(7.000000 0.000000) scale(1.000000)">
<text>m</text>
<g transform="translate(7.000000 0.000000) scale(1.000000)">
<g transform="translate(0.000000 5.000000) scale(0.750000)">
<text>n</text>
<g transform="translate(7.000000 0.000000) scale(1.000000)">
<g transform="translate(0.000000 5.000000) scale(0.750000)">
<text>o</text>
<g transform="translate(7.000000 0.000000) scale(1.000000)">
<g transform="translate(0.000000 5.000000) scale(0.750000)">
<text>p</text>
<g transform="translate(7.000000 0.000000) scale(1.000000)">
<g transform="translate(0.000000 5.000000) scale(0.750000)">
<text>q</text>
<g transform="translate(7.000000 0.000000) scale(1.000000)">
<g transform="translate(0.000000 5.000000) scale(0.750000)">
<text>r</text>
<g transform="translate(7.000000 0.000000) scale(1.000000)">
<g transform="translate(0.000000 5.000000) scale(0.750000)">
<text>s</text>
<g transform="translate(7.000000 0.000000) scale(1.000000)">
<g transform="translate(0.000000 5.000000) scale(0.750000)">
<text>t</text>
<g transform="translate(7.000000 0.000000) scale(1.000000)">
<g transform="translate(0.000000 5.000000) scale(0.750000)">
<text>u</text>
<g transform="translate(7.000000 0.000000) scale(1.000000)">
<g transform="translate(0.000000 5.000000) scale(0.750000)">
<text>v</text>
<g transform="translate(7.000000 0.000000) scale(1.000000)">
<g transform="translate(0.000000 5.000000) scale(0.750000)">
<text>w</text>
<g transform="translate(7.000000 0.000000) scale(1.000000)">
<g transform="translate(0.000000 5.000000) scale(0.750000)">
<text>x</text>
</g>
</g>
</g>
</g>
</g>
</g>
</g>
</g>
</g>
</g>
</g>
</g>
</g>
</g>
</g>
</g>
</g>
</g>
</g>
</g>
</g>
</g>
<g transform="translate(27.113062 0.000000) scale(1.000000)">
<text>+</text>
<g transform="translate(7.000000 0.000000) scale(1.000000)">
<text>y</text>
<g transform="translate(7.000000 0.000000) scale(1.000000)">
<text>z</text>
</g>
</g>
</g>
</g>
</g>
</g>
</svg>
