<?xml version="1.0" standalone="no"?>
<!DOCTYPE svg PUBLIC "-//W3C//DTD SVG 1.1//EN" "http://www.w3.org/Graphics/SVG/1.1/DTD/svg11.dtd">
<svg xmlns="http://www.w3.org/2000/svg" version="1.1">
<g transform="translate(50, 315.875000) scale(7)" font-family="monospace">
<text transform="scale(1 1.200000) translate(0 0.600000)">(</text><g transform="translate(6.000000 0.000000) scale(1.000000)">
<text>a</text>
</g>
<text transform="scale(1 1.200000) translate(12.000000 0.600000)">)</text><g transform="translate(18.000000 0.000000) scale(1.000000)">
<text>+</text>
<g transform="translate(7.000000 0.000000) scale(1.000000)">
<text transform="scale(1 3.512891) translate(0 1.756445)">(</text><g transform="translate(6.000000 0.000000) scale(1.000000)">
<text>b</text>
<g transform="translate(7.000000 0.000000) scale(1.000000)">
<g transform="translate(0.000000 -6.000000) scale(0.750000)">
<text>c</text>
<g transform="translate(7.000000 0.000000) scale(1.000000)">
<g transform="translate(0.000000 -6.000000) scale(0.750000)">
<text>d</text>
</g>
<g transform="translate(0.000000 5.000000) scale(0.750000)">
<text>e</text>
<g transform="translate(7.000000 0.000000) scale(1.000000)">
<g transform="translate(0.000000 -6.000000) scale(0.750000)">
<text>f</text>
<g transform="translate(7.000000 0.000000) scale(1.000000)">
<g transform="translate(0.000000 -6.000000) scale(0.750000)">
<text>g</text>
<g transform="translate(7.000000 0.000000) scale(1.000000)">
<g transform="translate(0.000000 -6.000000) scale(0.750000)">
<text>h</text>
<g transform="translate(7.000000 0.000000) scale(1.000000)">
<g transform="translate(0.000000 -6.000000) scale(0.750000)">
<text>i</text>
<g transform="translate(7.000000 0.000000) scale(1.000000)">
<g transform="translate(0.000000 -6.000000) scale(0.750000)">
<text>j</text>
</g>
</g>
</g>
</g>
</g>
</g>
</g>
</g>
</g>
</g>
</g>
</g>
</g>
<g transform="translate(0.000000 5.000000) scale(0.750000)">
<text>k</text>
<g transform="translate(7.000000 0.000000) scale(1.000000)">
<g transform="translate(0.000000 5.000000) scale(0.750000)">
<text>l</text>
<g transform="translate(7.000000 0.000000) scale(1.000000)">
<g transform="translate(0.000000 5.000000) scale(0.750000)">
<text>m</text>
<g transform="translate(7.000000 0.000000) scale(1.000000)">
<g transform="translate(0.000000 5.000000) scale(0.750000)">
<text>n</text>
<g transform="translate(7.000000 0.000000) scale(1.000000)">
<g transform="translate(0.000000 5.000000) scale(0.750000)">
<text>o</text>
</g>
</g>
</g>
</g>
</g>
</g>
</g>
</g>
</g>
</g>
</g>
<text transform="scale(1 3.512891) translate(30.196838 1.756445)">)</text><g transform="translate(36.196838 0.000000) scale(1.000000)">
<text>+</text>
<g transform="translate(7.000000 0.000000) scale(1.000000)">
<text>p</text>
<g transform="translate(7.000000 0.000000) scale(1.000000)">
<text>-</text>
<g transform="translate(7.000000 0.000000) scale(1.000000)">
<text>q</text>
</g>
</g>
</g>
</g>
</g>
</g>
</g>
</svg>
